<?xml version="1.0" standalone="no"?>
<!DOCTYPE svg PUBLIC "-//W3C//DTD SVG 20010904//EN"
 "http://www.w3.org/TR/2001/REC-SVG-20010904/DTD/svg10.dtd">
<svg version="1.0" xmlns="http://www.w3.org/2000/svg"
 width="200.000000pt" height="200.000000pt" viewBox="0 0 200.000000 200.000000"
 preserveAspectRatio="xMidYMid meet">
<metadata>
Created by potrace 1.14, written by Peter Selinger 2001-2017
</metadata>
<g transform="translate(0.000000,200.000000) scale(0.100000,-0.100000)"
fill="#000000" stroke="none">
<path d="M536 1624 c-12 -30 -6 -96 11 -125 11 -18 49 -45 105 -75 99 -53 142
-90 183 -160 16 -27 35 -55 43 -63 12 -12 12 -15 -2 -23 -9 -5 -16 -19 -16
-32 0 -28 -57 -91 -91 -99 -14 -4 -31 -18 -37 -32 l-12 -25 39 20 c22 10 65
44 96 74 40 39 67 57 93 62 42 7 89 33 118 65 26 29 61 46 109 53 47 7 105 60
86 79 -15 15 -14 57 1 57 11 0 148 90 148 97 0 5 -8 3 -95 -23 -102 -30 -121
-51 -116 -128 l3 -39 -44 6 c-70 9 -95 49 -73 119 11 34 -14 72 -70 104 l-53
31 -21 -38 -21 -37 -58 28 c-31 15 -82 33 -112 40 -84 18 -179 50 -194 66 -12
11 -15 11 -20 -2z"/>
<path d="M350 950 c-129 -3 -221 -8 -205 -12 87 -21 472 -26 1060 -13 204 5
425 9 492 9 132 1 171 15 51 18 -169 4 -1182 3 -1398 -2z"/>
<path d="M1838 943 c7 -3 16 -2 19 1 4 3 -2 6 -13 5 -11 0 -14 -3 -6 -6z"/>
<path d="M11 796 c-6 -9 -8 -127 -3 -173 3 -19 122 -17 150 3 25 18 29 56 7
74 -11 9 -13 16 -5 24 15 15 12 52 -4 65 -19 16 -134 21 -145 7z m114 -35 c9
-15 -21 -38 -47 -36 -15 1 -24 9 -26 23 -3 19 1 22 32 22 19 0 37 -4 41 -9z
m10 -80 c9 -16 -22 -38 -52 -37 -21 2 -29 8 -31 24 -3 20 1 22 37 22 22 0 42
-4 46 -9z"/>
<path d="M224 799 c-4 -6 -7 -49 -8 -96 -1 -96 0 -97 90 -91 37 2 50 7 52 21
3 14 -4 17 -47 17 l-51 0 3 59 c5 80 -16 127 -39 90z"/>
<path d="M398 803 c-15 -4 -18 -15 -18 -63 0 -75 12 -106 47 -122 38 -18 76
-12 106 18 22 21 24 32 23 97 0 39 -4 71 -8 70 -5 -2 -15 -3 -23 -3 -12 0 -15
-13 -15 -59 0 -33 -3 -66 -6 -75 -6 -17 -59 -23 -68 -8 -3 5 -6 38 -7 75 -2
72 -4 76 -31 70z"/>
<path d="M609 794 c-5 -7 -9 -50 -7 -96 l3 -83 73 -3 c68 -3 72 -2 72 18 0 18
-5 21 -37 20 -66 -3 -72 -2 -66 20 4 16 14 20 49 20 24 0 44 3 44 8 -1 22 -20
33 -53 29 -33 -4 -37 -2 -37 19 0 22 4 24 50 24 38 0 50 4 50 15 0 17 -2 17
-78 19 -30 1 -58 -4 -63 -10z"/>
<path d="M892 798 c-26 -13 -39 -54 -25 -77 5 -9 28 -22 49 -29 91 -30 56 -64
-37 -36 -31 9 -29 -23 2 -36 40 -17 74 -16 104 4 48 32 26 89 -40 102 -36 6
-54 31 -30 40 8 4 31 3 50 0 27 -5 35 -4 35 8 0 8 -5 18 -11 22 -20 12 -74 13
-97 2z"/>
<path d="M1050 790 c-7 -12 -8 -139 -1 -172 0 -5 33 -8 71 -8 64 0 70 2 70 20
0 19 -5 21 -50 17 -47 -3 -50 -2 -50 20 0 21 5 23 45 23 39 0 45 3 45 21 0 18
-5 20 -42 17 -38 -2 -43 0 -46 20 -3 20 1 22 48 22 43 0 51 3 48 17 -4 24
-125 27 -138 3z"/>
<path d="M1248 802 c-16 -3 -18 -16 -18 -98 0 -93 1 -95 23 -92 14 2 22 10 22
23 -1 38 26 41 55 7 26 -32 53 -41 65 -22 3 6 2 10 -3 10 -5 0 -13 10 -19 23
-8 17 -6 26 8 41 33 35 7 102 -41 107 -43 4 -77 4 -92 1z m86 -38 c19 -7 21
-50 4 -56 -7 -2 -24 -4 -38 -4 -24 1 -28 13 -21 59 1 9 33 9 55 1z"/>
<path d="M1447 798 c-12 -7 -20 -138 -11 -170 4 -15 17 -18 75 -18 39 0 69 4
69 10 0 29 4 27 -62 29 -31 1 -38 5 -38 21 0 17 7 20 45 20 39 0 45 3 45 21 0
15 -6 20 -22 19 -53 -5 -68 0 -68 20 0 17 7 20 50 20 41 0 50 3 50 18 0 14
-10 17 -61 17 -33 0 -66 -3 -72 -7z"/>
<path d="M1626 802 c-3 -3 -6 -47 -6 -99 0 -85 2 -93 19 -93 22 0 32 22 27 62
-6 50 10 48 53 -8 62 -79 76 -72 77 41 1 50 0 93 -2 97 -2 3 -13 4 -24 1 -16
-4 -19 -12 -17 -44 5 -61 -6 -63 -52 -7 -39 49 -62 64 -75 50z"/>
<path d="M1858 799 c-16 -10 -18 -166 -2 -180 7 -5 41 -9 76 -7 48 2 63 7 63
18 0 10 -11 15 -35 16 -19 1 -43 2 -52 3 -11 1 -18 9 -18 21 0 17 7 20 45 20
39 0 45 3 45 21 0 13 -6 20 -17 18 -52 -5 -73 1 -73 21 0 17 7 20 51 20 42 0
50 3 47 17 -2 14 -15 17 -60 18 -32 1 -63 -2 -70 -6z"/>
<path d="M548 512 c-15 -3 -18 -15 -18 -73 0 -55 3 -69 15 -69 8 0 15 9 15 20
0 12 7 20 18 20 9 0 23 -9 30 -20 7 -11 19 -20 27 -20 12 0 13 4 3 25 -9 19
-9 28 0 37 14 14 15 37 3 56 -9 15 -67 30 -93 24z m62 -42 c12 -20 3 -30 -26
-30 -17 0 -24 6 -24 18 0 10 3 21 6 24 9 10 35 2 44 -12z"/>
<path d="M675 510 c-1 -3 -2 -34 -1 -70 l1 -65 53 -3 c41 -2 52 0 52 12 0 10
-12 16 -37 18 -47 4 -50 22 -5 26 33 3 46 29 15 29 -43 0 -52 4 -47 17 3 9 18
13 40 11 26 -1 34 2 32 13 -2 10 -17 15 -51 16 -27 0 -50 -1 -52 -4z"/>
<path d="M829 506 c-16 -7 -24 -20 -24 -36 0 -20 7 -27 35 -36 49 -16 54 -39
7 -31 -38 6 -60 -9 -36 -24 20 -13 73 -11 87 3 26 26 14 55 -30 73 -36 14 -40
18 -25 26 10 6 26 8 36 4 21 -6 38 10 21 20 -20 12 -48 13 -71 1z"/>
<path d="M975 510 c-75 -28 -54 -140 25 -140 65 0 97 76 55 128 -8 10 -64 18
-80 12z m46 -30 c35 -19 18 -80 -23 -80 -16 0 -38 27 -38 49 0 10 27 41 36 41
3 0 14 -5 25 -10z"/>
<path d="M1111 512 c-7 -2 -11 -30 -11 -73 0 -55 3 -69 15 -69 8 0 15 9 15 20
0 12 7 20 18 20 9 0 23 -9 30 -20 7 -11 19 -20 27 -20 17 0 19 12 5 26 -6 6
-6 21 2 42 17 44 2 65 -49 72 -22 3 -45 4 -52 2z m70 -39 c15 -15 3 -33 -21
-33 -22 0 -34 15 -27 35 6 15 32 14 48 -2z"/>
<path d="M1258 512 c-34 -4 -37 -19 -5 -27 20 -5 22 -12 22 -58 0 -42 3 -52
18 -55 15 -3 18 2 17 30 -4 73 -1 87 19 83 11 -2 22 2 25 10 5 14 -45 23 -96
17z"/>
<path d="M1393 513 c-27 -5 -41 -46 -23 -68 7 -8 23 -15 35 -15 13 0 26 -7 29
-16 5 -14 0 -15 -34 -12 -46 4 -57 -17 -14 -28 41 -10 78 7 82 37 3 23 -3 29
-38 43 -46 18 -45 42 1 32 22 -4 29 -2 29 9 0 8 -4 15 -9 15 -5 0 -15 2 -23 4
-7 2 -23 1 -35 -1z"/>
</g>
</svg>
